<?xml version="1.0" standalone="no"?>
<!DOCTYPE svg PUBLIC "-//W3C//DTD SVG 20010904//EN"
 "http://www.w3.org/TR/2001/REC-SVG-20010904/DTD/svg10.dtd">
<svg version="1.0" xmlns="http://www.w3.org/2000/svg"
 width="600.000000pt" height="600.000000pt" viewBox="0 0 600.000000 600.000000"
 preserveAspectRatio="xMidYMid meet">
<metadata>
Created by potrace 1.16, written by Peter Selinger 2001-2019
</metadata>
<g transform="translate(0.000000,600.000000) scale(0.100000,-0.100000)"
fill="#000000" stroke="none">
<path d="M2282 5125 c-23 -7 -48 -18 -55 -23 -13 -11 -292 -161 -372 -200 -27
-13 -94 -53 -148 -89 -127 -83 -157 -126 -157 -225 0 -107 23 -148 162 -290
81 -83 191 -210 268 -312 27 -36 60 -66 86 -79 41 -20 42 -20 31 -56 -6 -20
-11 -92 -11 -161 0 -121 1 -129 42 -249 42 -124 42 -125 27 -170 -8 -24 -15
-57 -15 -73 0 -16 -7 -44 -15 -63 -13 -33 -112 -140 -177 -193 -29 -23 -37
-59 -16 -80 7 -7 38 -12 70 -12 l58 0 0 -38 c0 -28 -10 -51 -37 -89 -21 -28
-49 -71 -63 -95 -14 -24 -99 -120 -190 -213 -172 -178 -207 -227 -249 -352
-21 -61 -28 -167 -13 -189 7 -11 64 -26 58 -15 -3 3 2 15 10 26 11 15 14 16
14 3 0 -19 -39 -109 -40 -90 0 6 -4 12 -9 12 -10 0 -9 -19 2 -36 7 -11 -19
-29 -36 -25 -5 1 -6 -3 -3 -8 4 -5 15 -8 25 -6 16 3 17 -2 10 -43 -4 -26 -10
-114 -13 -197 -8 -200 -25 -367 -39 -384 -9 -12 -9 -13 1 -7 8 5 12 0 12 -13
0 -12 -3 -21 -7 -21 -5 0 -9 -29 -9 -64 -2 -103 -54 -293 -77 -279 -6 3 -7 1
-3 -5 8 -14 -29 -74 -97 -155 -29 -34 -68 -82 -87 -107 -19 -25 -42 -53 -50
-62 -8 -9 -30 -46 -49 -81 -42 -78 -39 -117 10 -117 29 0 30 -1 24 -37 -4 -21
-11 -54 -16 -73 -5 -19 -9 -47 -9 -62 l0 -28 500 0 c275 0 500 3 500 8 0 4
-12 50 -26 102 -34 124 -70 203 -138 299 -31 44 -56 90 -56 103 0 21 4 24 29
20 36 -5 69 12 81 43 14 36 -11 104 -64 179 -25 36 -46 67 -46 70 0 3 13 6 29
6 66 0 70 60 11 157 -37 62 -41 73 -38 128 3 57 4 60 27 57 31 -5 71 6 71 18
0 6 -11 10 -24 10 -35 0 -86 46 -86 78 0 35 38 112 56 112 18 0 18 14 1 32
-25 25 -5 59 47 79 54 20 91 50 112 91 14 27 19 113 8 142 -12 32 -24 15 -24
-35 0 -64 -23 -113 -64 -138 -33 -20 -155 -56 -163 -47 -8 8 -21 199 -15 234
l4 33 23 -56 c13 -31 31 -65 41 -76 21 -23 67 -25 84 -4 16 19 7 115 -15 168
-22 54 -20 67 14 67 20 0 44 -14 81 -47 58 -52 89 -109 90 -164 0 -33 2 -35
28 -32 50 6 57 -9 29 -58 -28 -49 -67 -168 -67 -205 0 -34 27 -30 62 9 l30 33
48 -23 c78 -37 125 -106 139 -203 5 -36 10 -45 26 -45 14 0 23 10 31 33 l10
32 12 -48 c7 -26 23 -70 36 -97 29 -63 125 -155 160 -155 22 0 24 3 17 23 -4
12 -7 67 -6 122 3 149 59 305 109 305 11 0 16 -14 18 -46 4 -59 25 -76 65 -54
26 15 57 59 48 69 -2 2 -16 -4 -29 -13 -37 -24 -46 -20 -46 22 0 43 -5 51 -45
79 -22 14 -40 19 -67 15 -61 -7 -85 4 -98 43 -6 20 -9 52 -6 73 6 31 2 44 -27
84 -46 65 -63 41 -33 -45 l14 -38 -36 3 c-51 4 -74 49 -70 135 l3 62 -31 6
c-62 11 -100 87 -89 177 6 49 5 54 -17 63 -15 6 -28 25 -36 53 -28 85 -68 45
-108 -107 l-22 -85 -7 51 c-9 68 11 195 41 263 30 65 79 120 109 120 12 0 43
11 68 24 l46 25 20 -43 c12 -23 37 -57 56 -76 l35 -34 0 32 c0 28 3 32 25 32
19 0 31 -9 43 -31 28 -53 75 -110 111 -138 l34 -26 -7 55 -7 55 23 -23 c14
-12 34 -22 46 -22 36 0 27 38 -26 117 -27 39 -54 85 -62 102 -16 39 -60 45
-60 9 -1 -18 -6 -13 -25 22 -23 42 -34 74 -49 142 -10 46 -32 33 -46 -27 -11
-47 -16 -55 -37 -55 -18 0 -25 7 -29 29 -6 27 -8 29 -45 24 -48 -7 -50 5 -13
88 21 46 25 67 20 101 -3 24 -6 73 -5 111 0 64 -6 77 -26 58 -6 -4 -25 -11
-44 -15 -29 -5 -32 -4 -26 12 24 57 28 71 22 87 -6 13 -14 16 -35 11 -100 -23
-129 -17 -73 17 65 38 90 123 71 240 -11 63 -18 78 -57 121 -56 63 -83 114
-90 176 -5 45 -3 50 30 84 48 48 54 71 28 107 -12 15 -21 30 -21 32 0 2 18 9
40 16 21 6 56 27 76 46 43 41 41 65 -11 129 -44 54 -55 85 -55 157 0 56 2 61
48 111 26 29 58 69 72 88 13 19 75 99 137 177 106 134 116 143 170 163 72 27
138 24 206 -11 43 -21 52 -31 73 -83 36 -89 70 -292 91 -548 6 -83 25 -105 38
-45 15 72 -1 476 -22 570 -13 57 -14 84 -5 157 12 99 45 186 73 195 27 9 57
-3 70 -27 13 -24 13 -200 0 -245 -5 -17 -7 -33 -5 -36 3 -2 -1 -17 -7 -33 -21
-54 -38 -238 -39 -416 0 -184 3 -208 26 -208 11 0 14 22 14 103 0 68 8 142 24
222 25 121 69 296 80 314 12 18 100 64 157 81 39 12 70 16 91 11 56 -13 170
-84 235 -147 34 -32 80 -76 103 -97 57 -53 70 -89 70 -194 -1 -88 -12 -135
-65 -261 -23 -54 -11 -86 43 -110 l37 -17 -9 -47 c-12 -62 7 -91 74 -115 28
-10 63 -30 77 -45 l27 -28 -26 0 c-30 0 -53 -20 -63 -53 -4 -12 -17 -32 -28
-44 -11 -13 -19 -24 -16 -26 2 -2 21 -14 42 -26 28 -17 36 -28 32 -40 -16 -38
-13 -197 6 -275 15 -65 16 -88 7 -123 -11 -45 -47 -83 -78 -83 -31 0 -44 -26
-31 -61 6 -18 11 -40 11 -51 0 -15 -3 -17 -19 -8 -38 20 -78 12 -106 -21 -22
-27 -26 -40 -24 -86 2 -30 -3 -59 -9 -65 -7 -7 -12 -27 -12 -45 0 -43 -52
-101 -94 -105 -26 -3 -31 1 -39 29 -7 25 -17 33 -41 38 -70 14 -97 27 -111 56
-22 42 -55 38 -110 -12 -57 -52 -127 -71 -197 -54 -20 5 -28 4 -28 -6 0 -22
52 -69 77 -69 14 0 23 -6 23 -15 0 -22 46 -48 73 -41 13 3 36 17 50 30 16 15
27 20 27 12 0 -7 11 -34 24 -59 l24 -45 -21 -6 c-12 -3 -41 -6 -65 -6 -48 0
-82 -14 -82 -34 0 -7 9 -25 20 -39 l21 -26 -31 -16 c-34 -18 -40 -44 -10 -52
11 -3 20 -9 20 -13 0 -12 -102 -144 -122 -159 -13 -9 -16 -17 -10 -23 13 -13
73 21 169 93 92 70 143 86 143 45 0 -18 36 -40 55 -32 8 3 29 29 48 59 36 56
101 127 116 127 5 0 13 -17 18 -37 7 -31 14 -39 36 -41 24 -3 29 3 58 67 32
72 49 89 49 49 0 -38 40 -106 76 -128 49 -31 77 -69 63 -86 -16 -19 -39 -17
-74 6 -16 11 -42 20 -57 20 -36 0 -28 -29 21 -68 20 -16 48 -50 61 -75 23 -43
23 -46 6 -72 -17 -26 -20 -26 -97 -23 -49 2 -79 -1 -79 -7 0 -6 12 -27 26 -48
29 -43 27 -78 -7 -121 -25 -32 -105 -64 -121 -48 -47 47 -220 -47 -261 -140
-22 -51 -15 -59 21 -26 26 24 83 40 109 31 24 -9 -51 -136 -109 -186 -63 -54
-59 -66 33 -86 70 -16 130 -6 179 29 l27 19 64 -34 c67 -36 131 -45 170 -24
20 10 19 12 -15 45 -35 34 -51 79 -44 125 3 24 73 76 176 132 l51 28 -11 -33
c-6 -18 -15 -38 -20 -45 -6 -7 -8 -17 -6 -23 5 -16 112 65 173 131 28 30 59
59 70 65 15 8 12 10 -18 6 -31 -4 -37 -1 -37 15 0 11 3 23 7 26 3 4 7 123 7
264 1 279 6 308 54 320 66 16 121 -53 142 -179 7 -38 14 -68 16 -68 2 0 24 16
49 35 25 19 63 39 85 45 22 6 42 15 45 20 9 14 -60 85 -154 158 -94 73 -194
193 -212 251 -9 31 -8 43 5 69 9 17 16 33 16 36 0 3 -18 17 -40 31 -128 81
-209 221 -161 279 19 23 98 21 144 -4 28 -15 38 -17 41 -8 2 7 12 39 22 70 20
65 16 75 -39 94 -31 10 -32 13 -29 60 3 40 -3 60 -32 115 l-35 65 31 85 c26
71 32 102 36 206 4 106 -4 195 -24 279 -5 19 -2 21 36 18 35 -2 48 2 77 29 19
18 51 55 71 82 56 77 127 160 238 275 155 161 190 225 182 326 -7 79 -50 136
-157 205 -70 45 -328 186 -556 303 -60 31 -147 29 -205 -6 -74 -43 -148 -108
-187 -165 -26 -38 -41 -52 -52 -48 -41 17 -204 47 -324 60 -301 34 -642 8
-728 -55 l-27 -19 -38 56 c-43 63 -149 153 -215 182 -51 24 -96 25 -157 6z
m150 -520 c35 -115 41 -124 68 -107 17 10 20 8 30 -26 5 -20 10 -42 10 -49 0
-6 -31 -40 -70 -74 -38 -34 -67 -66 -64 -71 3 -5 2 -7 -3 -6 -5 2 -29 -13 -53
-33 -63 -51 -76 -48 -72 15 8 162 38 337 75 435 18 51 21 53 34 35 8 -10 28
-64 45 -119z m1702 43 c43 -131 78 -454 50 -465 -25 -10 -109 55 -198 153
l-56 62 15 49 c12 41 19 49 37 49 20 -1 27 11 55 99 56 174 57 175 97 53z"/>
<path d="M2705 4302 c-64 -19 -120 -46 -129 -61 -4 -5 4 -51 15 -103 19 -80
27 -98 58 -130 28 -27 48 -38 83 -43 50 -8 146 8 192 32 24 13 35 13 67 3 50
-17 62 -7 56 45 -6 62 -56 162 -109 219 -44 49 -46 50 -109 53 -40 2 -86 -4
-124 -15z"/>
<path d="M3605 4310 c-35 -14 -95 -89 -131 -163 -53 -112 -43 -181 22 -146 22
11 32 10 72 -5 113 -44 209 -44 261 0 33 27 59 86 71 159 5 28 10 59 12 69 8
53 -227 119 -307 86z"/>
<path d="M3135 3649 c-39 -11 -104 -65 -116 -96 -25 -66 39 -157 131 -190 l50
-18 -2 -57 -2 -58 -52 -15 c-66 -19 -164 -85 -210 -141 -20 -24 -40 -44 -45
-44 -20 0 -79 65 -108 120 -29 55 -33 71 -34 144 -1 71 3 91 26 137 14 30 47
77 72 106 35 39 45 59 45 85 l-1 33 -15 -27 c-8 -15 -34 -48 -59 -73 -24 -25
-56 -71 -72 -103 -25 -51 -28 -68 -28 -157 0 -95 2 -103 34 -163 59 -109 135
-158 182 -116 16 14 21 11 64 -35 121 -129 341 -126 455 8 37 43 40 44 58 28
37 -34 95 -11 142 58 71 103 92 206 65 309 -19 71 -43 113 -107 184 -27 29
-48 57 -48 62 0 6 -4 10 -10 10 -26 0 -6 -53 40 -106 78 -89 95 -132 95 -239
0 -75 -4 -97 -24 -135 -35 -65 -63 -100 -93 -116 -26 -13 -28 -12 -85 47 -43
45 -81 72 -150 107 l-93 45 0 52 0 52 46 18 c92 35 143 107 130 180 -7 34 -39
66 -95 95 -30 15 -146 21 -186 9z m-15 -552 c18 -37 35 -58 63 -72 l37 -20 38
20 c26 14 45 36 63 72 l27 52 43 -28 c75 -47 76 -53 30 -104 -83 -89 -214
-114 -325 -62 -50 24 -113 83 -117 110 -1 9 98 84 111 85 3 0 16 -24 30 -53z"/>
<path d="M4250 2882 c0 -5 7 -30 16 -55 12 -36 33 -63 87 -112 39 -36 76 -64
82 -62 15 5 17 89 2 117 -7 14 -22 26 -33 28 -11 2 -45 23 -75 47 -51 42 -79
55 -79 37z"/>
<path d="M3119 2384 c-7 -9 -12 -37 -12 -63 1 -102 79 -204 151 -200 20 1 47
-1 59 -5 25 -8 42 11 18 20 -20 8 -42 50 -59 116 -8 32 -19 53 -27 53 -19 0
-16 -84 4 -125 12 -23 13 -30 3 -30 -26 0 -65 41 -92 95 -21 44 -25 65 -21
100 5 49 -3 64 -24 39z"/>
<path d="M4413 2198 c-4 -7 -6 -101 -4 -208 2 -107 4 -214 4 -237 0 -24 3 -43
6 -43 4 0 50 28 103 63 53 34 119 76 147 92 51 30 55 35 52 68 -1 9 3 17 8 17
6 0 11 7 11 15 0 9 7 27 16 41 9 13 14 27 12 30 -23 22 -150 -76 -189 -146
-19 -34 -28 -40 -55 -40 l-32 0 5 78 c11 158 -43 332 -84 270z"/>
<path d="M2907 2048 c-48 -49 -70 -106 -75 -198 -3 -78 -1 -89 26 -142 l29
-58 -31 0 c-74 1 -159 67 -172 135 -8 46 3 115 27 172 20 48 19 59 -4 50 -27
-10 -60 -97 -65 -172 -5 -88 18 -141 79 -182 45 -30 151 -45 172 -24 6 6 27
11 47 11 l35 1 -28 20 c-64 48 -89 147 -63 249 21 81 31 91 46 46 14 -43 53
-76 91 -76 36 0 60 10 53 21 -3 5 -10 7 -15 3 -18 -11 -70 18 -84 47 -8 15
-15 41 -15 57 0 15 -6 37 -14 47 -13 18 -14 18 -39 -7z"/>
<path d="M3467 1854 c-13 -13 -7 -44 18 -103 54 -130 41 -185 -75 -303 -37
-37 -65 -70 -62 -72 11 -12 83 37 129 88 95 104 104 165 42 306 -36 84 -42 93
-52 84z"/>
<path d="M4680 1792 c-47 -29 -91 -57 -99 -61 -11 -7 -10 -19 8 -72 34 -102
26 -152 -41 -245 -35 -49 -32 -76 11 -82 11 -2 21 -5 21 -6 0 -2 -11 -28 -25
-57 -29 -65 -42 -157 -26 -187 15 -29 55 -28 76 1 16 21 16 19 10 -43 -4 -36
-13 -95 -21 -131 -14 -60 -19 -69 -59 -97 -55 -39 -74 -75 -82 -156 -6 -63 -7
-65 -52 -94 -57 -37 -89 -71 -135 -141 -40 -61 -53 -106 -37 -125 8 -9 4 -21
-15 -47 -47 -62 -84 -150 -84 -201 l0 -48 329 0 328 0 -9 52 c-5 29 -23 76
-39 105 l-29 52 19 43 c10 24 26 50 35 57 36 30 49 74 50 163 1 47 -1 82 -4
77 -3 -4 -16 31 -29 79 -13 48 -35 116 -48 151 l-23 64 20 34 c24 41 25 61 5
90 -14 20 -13 23 26 56 22 20 53 38 67 42 81 20 94 67 36 136 -19 23 -42 55
-50 70 -18 36 -19 89 -1 89 8 0 22 15 32 33 26 48 14 98 -37 153 -22 24 -37
44 -32 44 5 0 2 5 -6 11 -11 7 -3 8 30 4 27 -4 55 -17 71 -31 25 -24 45 -32
34 -14 -3 5 -7 33 -9 62 -3 58 -27 111 -75 172 -17 21 -29 41 -27 45 14 22
-41 -1 -114 -47z"/>
<path d="M3273 1799 c-35 -23 -63 -45 -63 -50 0 -22 26 -18 72 10 28 18 54 28
58 24 4 -4 15 -38 25 -76 l17 -67 -46 -50 c-51 -54 -57 -81 -24 -104 l21 -15
-27 -41 c-59 -89 -53 -129 9 -58 68 79 81 133 34 145 -18 5 -15 11 30 52 29
27 51 56 50 67 0 10 -12 60 -27 109 -33 109 -41 112 -129 54z"/>
<path d="M2313 1300 c2 -71 2 -73 -33 -101 -22 -18 -63 -35 -113 -48 -121 -30
-159 -64 -159 -144 0 -103 98 -203 178 -183 33 9 31 26 -4 26 -54 0 -132 87
-134 148 -2 68 23 91 127 112 153 31 211 106 172 219 -22 62 -36 50 -34 -29z"/>
<path d="M3807 1184 c-3 -4 3 -18 14 -32 10 -14 26 -50 35 -79 25 -84 2 -153
-82 -254 -36 -43 -101 -99 -115 -99 -4 0 7 27 24 61 27 52 31 72 31 134 0 61
-4 82 -29 130 -29 55 -57 86 -70 74 -3 -3 7 -33 22 -65 22 -48 28 -73 28 -134
0 -65 -4 -85 -32 -140 -29 -59 -30 -65 -15 -77 24 -19 80 -8 127 25 50 35 141
161 156 215 15 55 5 129 -23 179 -24 42 -59 73 -71 62z"/>
<path d="M3466 992 c12 -92 -27 -146 -181 -252 -123 -85 -148 -115 -148 -176
0 -83 59 -127 175 -128 54 -1 71 -5 90 -23 16 -15 37 -23 61 -23 45 0 47 10 4
30 -73 34 -88 147 -35 262 48 104 12 110 -46 7 -28 -48 -31 -63 -31 -138 l0
-83 -45 6 c-67 9 -113 37 -124 75 -13 44 9 72 115 144 134 92 190 155 204 228
8 45 -11 119 -31 119 -12 0 -13 -9 -8 -48z"/>
<path d="M4199 963 c-8 -21 -14 -72 -14 -113 0 -64 5 -85 30 -135 21 -43 38
-63 57 -69 15 -6 31 -6 35 -1 5 4 2 10 -5 12 -18 7 -47 68 -62 131 -8 36 -10
74 -4 120 11 90 11 86 -8 90 -11 2 -20 -9 -29 -35z"/>
<path d="M2663 688 c-21 -27 -36 -96 -37 -168 -1 -142 77 -252 206 -291 66
-20 118 -20 118 1 0 6 -9 10 -19 10 -34 0 -146 56 -180 91 -48 47 -81 123 -81
185 0 51 12 133 25 167 8 20 -17 24 -32 5z"/>
<path d="M2881 601 c-18 -32 -13 -144 9 -214 25 -81 65 -127 111 -127 l32 0
-37 33 c-47 42 -77 125 -84 235 -5 86 -14 106 -31 73z"/>
<path d="M4206 475 c-22 -30 -75 -90 -120 -132 l-80 -78 -8 39 c-16 77 -56 89
-87 27 -21 -40 -47 -54 -73 -40 -8 4 -25 3 -39 -4 -20 -11 -25 -23 -32 -76 -4
-35 -21 -97 -36 -137 l-29 -74 28 0 c25 0 31 7 55 67 15 38 27 89 28 120 2 46
5 53 22 51 44 -3 65 3 94 28 l31 26 0 -36 c0 -72 45 -60 150 40 85 81 166 194
156 219 -9 24 -19 18 -60 -40z"/>
<path d="M2077 513 c-23 -22 30 -145 91 -214 51 -57 126 -99 144 -81 10 10 9
18 -5 41 -9 16 -17 37 -17 46 0 15 1 15 16 1 33 -33 53 -38 105 -25 27 7 51
10 54 8 2 -3 0 -34 -6 -68 -18 -111 15 -211 71 -220 24 -3 24 -2 7 16 -27 31
-37 107 -25 202 9 76 8 85 -9 102 -17 17 -24 18 -82 8 l-64 -12 -39 42 c-21
24 -44 41 -51 38 -7 -2 -14 -28 -17 -58 l-5 -54 -43 45 c-24 24 -59 77 -79
117 -20 40 -37 73 -38 73 -1 0 -5 -3 -8 -7z"/>
</g>
</svg>
