<?xml version="1.0" standalone="no"?>
<!DOCTYPE svg PUBLIC "-//W3C//DTD SVG 20010904//EN"
 "http://www.w3.org/TR/2001/REC-SVG-20010904/DTD/svg10.dtd">
<svg version="1.0" xmlns="http://www.w3.org/2000/svg"
 width="600.000000pt" height="600.000000pt" viewBox="0 0 600.000000 600.000000"
 preserveAspectRatio="xMidYMid meet">
<metadata>
Created by potrace 1.16, written by Peter Selinger 2001-2019
</metadata>
<g transform="translate(0.000000,600.000000) scale(0.100000,-0.100000)"
fill="#000000" stroke="none">
<path d="M4279 5818 c-7 -13 -32 -43 -55 -67 -24 -24 -44 -47 -44 -52 0 -4
-15 -23 -34 -41 -18 -18 -38 -43 -45 -55 -19 -37 -31 -26 -31 27 0 28 5 50 10
50 14 0 12 28 -2 33 -19 6 -66 -12 -72 -28 -2 -7 -18 -16 -35 -20 -17 -4 -38
-13 -45 -21 -8 -7 -47 -19 -88 -26 -40 -7 -75 -16 -79 -20 -12 -18 -259 -29
-403 -19 -80 6 -211 11 -292 11 -152 0 -375 -17 -384 -29 -3 -4 -52 -15 -109
-24 -58 -10 -107 -21 -110 -26 -4 -4 -30 -14 -58 -21 -29 -6 -53 -15 -53 -19
0 -4 -25 -13 -55 -20 -30 -7 -55 -15 -55 -19 0 -4 -27 -16 -60 -26 -33 -11
-60 -23 -60 -27 0 -4 -16 -13 -35 -19 -19 -6 -35 -15 -35 -19 0 -4 -18 -13
-39 -20 -21 -6 -41 -17 -44 -25 -3 -8 -20 -17 -37 -21 -17 -4 -34 -13 -37 -21
-3 -8 -11 -14 -19 -14 -8 0 -22 -8 -32 -17 -10 -10 -31 -25 -47 -33 -17 -8
-34 -21 -38 -27 -4 -7 -13 -13 -20 -13 -7 0 -24 -10 -39 -23 -15 -13 -39 -32
-54 -43 -48 -35 -76 -58 -121 -101 -25 -24 -48 -43 -52 -43 -4 0 -17 -10 -28
-22 -11 -13 -39 -40 -62 -60 -22 -21 -41 -40 -41 -44 0 -3 -15 -21 -33 -40
-17 -19 -78 -82 -134 -142 -138 -144 -147 -154 -155 -174 -4 -10 -11 -18 -16
-18 -5 0 -15 -13 -22 -30 -7 -16 -16 -30 -20 -30 -4 0 -15 -21 -25 -47 -10
-27 -21 -50 -24 -53 -10 -8 -31 -75 -31 -97 0 -12 -5 -23 -12 -25 -9 -3 -12
-49 -13 -169 0 -145 2 -168 17 -183 10 -10 18 -22 18 -28 0 -6 47 -58 105
-115 112 -112 139 -158 116 -202 -7 -11 -18 -21 -26 -21 -8 0 -15 -4 -15 -9 0
-5 -13 -14 -30 -21 -17 -7 -30 -16 -30 -19 0 -4 -16 -13 -35 -21 -19 -8 -35
-17 -35 -20 0 -4 -20 -15 -45 -26 -25 -10 -45 -21 -45 -25 0 -4 -20 -13 -45
-20 -25 -7 -45 -17 -45 -21 0 -4 -6 -8 -13 -8 -18 0 -67 -24 -67 -32 0 -5 -6
-8 -14 -8 -24 0 -116 -33 -116 -41 0 -5 -18 -13 -40 -19 -22 -6 -40 -15 -40
-20 0 -4 -17 -14 -37 -21 -20 -6 -45 -20 -56 -30 -10 -9 -30 -20 -43 -23 -13
-4 -34 -17 -47 -30 -24 -23 -57 -98 -57 -128 0 -9 -5 -18 -12 -20 -15 -5 -18
-285 -3 -296 6 -4 18 -24 27 -44 10 -21 22 -38 26 -38 5 0 20 -9 33 -21 13
-11 36 -23 51 -26 20 -4 29 -13 33 -35 8 -33 38 -66 81 -88 16 -8 31 -18 34
-21 5 -7 95 -39 109 -39 12 0 151 -138 151 -150 0 -6 5 -10 10 -10 6 0 20 -11
32 -25 12 -14 27 -25 34 -25 6 0 14 -6 17 -13 3 -7 23 -19 46 -26 23 -6 41
-15 41 -20 0 -4 16 -13 35 -21 19 -8 35 -18 35 -22 0 -5 11 -13 25 -18 14 -5
25 -13 25 -17 0 -5 17 -17 38 -28 20 -11 41 -25 45 -32 4 -7 14 -13 22 -13 7
0 20 -7 28 -15 8 -8 45 -20 81 -27 36 -7 66 -16 66 -20 0 -5 16 -8 35 -8 19 0
35 5 35 10 0 6 9 10 20 10 31 0 110 23 110 33 0 4 14 13 30 18 17 6 30 15 30
19 0 5 13 11 29 15 15 3 37 14 47 23 11 10 39 24 63 31 24 7 50 19 57 26 22
22 91 29 109 12 17 -18 20 -47 5 -47 -5 0 -10 -8 -10 -18 0 -18 -18 -41 -59
-75 -42 -34 -146 -44 -227 -21 -20 5 -21 1 -28 -113 -9 -171 -17 -243 -27
-243 -5 0 -9 -61 -9 -135 0 -83 4 -135 10 -135 6 0 10 -10 10 -22 0 -29 30
-108 41 -108 5 0 9 -7 9 -15 0 -8 -4 -15 -10 -15 -5 0 -17 -17 -27 -37 -9 -21
-23 -44 -30 -51 -7 -7 -13 -20 -13 -28 0 -8 -6 -17 -14 -20 -7 -3 -19 -23 -26
-45 -7 -21 -16 -39 -20 -39 -3 0 -14 -20 -24 -45 -11 -25 -22 -45 -26 -45 -4
0 -13 -18 -20 -40 -7 -22 -16 -40 -20 -40 -4 0 -13 -18 -20 -40 -7 -22 -17
-40 -21 -40 -4 0 -15 -22 -24 -49 -9 -27 -22 -52 -29 -54 -8 -3 -16 -22 -20
-41 -4 -20 -11 -36 -16 -36 -6 0 -10 -7 -10 -15 0 -8 -9 -24 -20 -35 -11 -11
-20 -24 -20 -30 0 -6 61 -10 164 -10 l163 0 6 66 c3 37 10 69 15 73 6 4 18 49
28 101 9 52 21 97 25 100 4 3 13 42 20 88 8 45 17 82 20 82 4 0 10 42 14 94 7
87 9 93 27 88 11 -2 22 -12 26 -21 3 -9 16 -27 29 -40 13 -13 23 -30 23 -37 0
-8 5 -14 10 -14 6 0 10 -9 10 -20 0 -18 19 -70 30 -80 3 -3 14 -23 25 -45 11
-22 25 -44 32 -48 7 -4 13 -13 13 -19 0 -11 103 -118 114 -118 3 0 15 -8 25
-17 36 -32 46 -39 89 -58 23 -10 42 -22 42 -26 0 -4 20 -12 45 -18 25 -6 45
-15 45 -20 0 -4 26 -14 58 -21 31 -7 59 -16 62 -21 3 -4 64 -16 135 -25 72
-10 133 -22 137 -28 10 -15 606 -15 616 -1 4 6 57 19 117 29 61 10 112 21 115
25 8 11 90 30 90 21 0 -5 -7 -15 -15 -24 -8 -8 -19 -26 -25 -40 l-10 -26 1135
0 1135 0 0 76 c0 83 -20 266 -30 274 -3 3 -12 48 -19 100 -7 52 -17 97 -21
100 -5 3 -16 36 -26 73 -9 37 -20 67 -24 67 -5 0 -14 16 -20 35 -7 20 -38 61
-70 93 -39 39 -60 68 -65 92 -4 19 -12 38 -17 41 -12 8 -14 159 -2 167 5 4 16
26 24 50 7 23 17 42 21 42 5 0 14 18 20 41 7 23 19 43 26 46 7 3 13 11 13 19
0 8 4 14 10 14 19 0 89 74 95 102 4 15 11 28 15 28 5 0 15 19 22 43 6 23 15
44 19 47 39 30 39 713 0 740 -4 3 -14 33 -21 68 -7 34 -16 62 -19 62 -4 0 -15
34 -26 75 -10 41 -21 75 -25 75 -4 0 -13 27 -20 60 -10 47 -17 60 -31 60 -11
0 -19 -7 -19 -15 0 -8 -4 -15 -9 -15 -5 0 -17 -23 -27 -50 -10 -28 -21 -50
-24 -50 -4 0 -13 47 -20 105 -7 58 -16 105 -20 105 -4 0 -12 38 -19 85 -11 73
-16 85 -33 85 -12 0 -19 -6 -17 -17 5 -38 -38 -95 -81 -108 -14 -4 -28 -13
-32 -19 -9 -13 -97 -13 -106 1 -4 5 -21 15 -38 22 -17 7 -38 24 -45 39 -8 15
-20 33 -26 40 -22 23 -15 84 11 110 13 12 29 22 34 22 14 0 112 96 112 109 0
6 8 18 19 28 10 10 24 35 30 56 7 20 16 37 21 37 5 0 14 25 21 55 7 30 15 55
19 55 4 0 12 30 18 68 12 73 2 249 -15 261 -5 3 -15 26 -22 50 -7 24 -21 52
-30 63 -13 13 -20 42 -24 100 -3 44 -9 84 -14 87 -5 3 -15 25 -21 49 -7 23
-16 42 -21 42 -4 0 -13 23 -20 50 -7 28 -16 50 -21 50 -4 0 -16 23 -26 50 -10
28 -21 50 -24 50 -4 0 -13 18 -20 40 -7 22 -16 40 -20 40 -4 0 -13 14 -20 30
-7 17 -15 30 -19 30 -4 0 -15 20 -25 45 -11 25 -23 45 -27 45 -4 0 -10 8 -14
19 -3 10 -17 32 -31 47 -51 59 -59 75 -69 132 -4 23 -10 42 -15 42 -5 0 -11
18 -15 40 -4 22 -12 46 -19 53 -6 6 -18 28 -26 47 -8 19 -17 37 -20 40 -4 3
-15 26 -25 53 -10 26 -21 47 -24 47 -4 0 -13 16 -21 35 -8 19 -18 35 -22 35
-5 0 -14 14 -19 30 -6 17 -15 30 -19 30 -4 0 -15 16 -24 35 -9 19 -21 35 -25
35 -5 0 -14 14 -21 30 -7 17 -16 30 -21 30 -4 0 -10 8 -14 19 -3 10 -17 32
-30 47 -46 54 -50 60 -65 89 -8 17 -23 36 -32 43 -10 7 -18 19 -18 26 0 19
-23 26 -90 26 -51 0 -61 -3 -71 -22z m192 -108 c5 0 9 -6 9 -12 0 -7 11 -25
24 -41 13 -15 29 -41 36 -57 7 -17 16 -30 19 -30 4 0 13 -16 21 -35 8 -19 18
-35 22 -35 5 0 14 -13 19 -30 6 -16 14 -30 18 -30 4 0 15 -20 25 -45 11 -25
22 -45 26 -45 4 0 12 -18 19 -40 6 -22 15 -40 19 -40 5 0 13 -15 20 -33 13
-35 0 -97 -19 -97 -5 0 -9 -8 -10 -17 0 -13 -3 -11 -12 7 -6 14 -17 30 -23 37
-6 7 -15 32 -18 57 -5 30 -14 49 -27 56 -10 6 -19 16 -19 22 0 5 -22 33 -50
61 -27 28 -50 56 -50 64 0 7 -4 13 -9 13 -5 0 -15 39 -22 88 -7 48 -16 89 -20
92 -4 3 -9 32 -13 65 -3 33 -3 52 0 43 3 -10 10 -18 15 -18z m-1511 -183 c-14
-6 -29 -17 -33 -24 -4 -7 -14 -13 -22 -13 -7 0 -20 -6 -27 -13 -7 -8 -30 -20
-51 -26 -20 -7 -37 -16 -37 -20 0 -4 -25 -16 -55 -26 -30 -11 -55 -23 -55 -28
0 -4 -13 -13 -30 -18 -16 -6 -30 -14 -30 -18 0 -4 -16 -13 -35 -21 -19 -8 -35
-17 -35 -20 0 -3 -16 -14 -35 -23 -19 -9 -35 -20 -35 -25 0 -5 -16 -14 -35
-22 -19 -7 -36 -19 -39 -27 -3 -7 -12 -13 -20 -13 -8 0 -21 -6 -28 -14 -8 -7
-29 -21 -46 -30 -37 -19 -59 -36 -110 -84 -19 -18 -47 -39 -63 -48 -16 -8 -29
-21 -29 -28 0 -8 -13 -27 -30 -43 -16 -15 -30 -31 -30 -35 0 -3 -15 -22 -34
-41 -19 -20 -40 -52 -47 -71 -7 -20 -17 -36 -22 -36 -4 0 -13 -13 -18 -30 -6
-16 -15 -30 -19 -30 -5 0 -11 -14 -15 -30 -4 -17 -12 -36 -19 -43 -16 -15 -46
-135 -46 -182 0 -19 -4 -35 -9 -35 -4 0 -14 -40 -20 -90 -7 -49 -17 -90 -22
-90 -5 0 -9 -9 -9 -20 0 -11 -8 -24 -17 -27 -10 -4 -24 -15 -31 -25 -7 -10
-17 -18 -22 -18 -12 0 -65 -53 -73 -73 -4 -11 -3 -16 3 -12 6 4 6 -3 0 -20 -6
-15 -10 -42 -10 -61 0 -19 -4 -34 -10 -34 -13 0 -13 -57 0 -62 13 -4 31 -279
21 -315 -5 -15 -4 -38 0 -51 7 -18 16 -22 51 -22 34 0 47 -6 63 -25 33 -41
246 -255 254 -255 4 0 21 -13 37 -30 16 -16 34 -30 41 -30 7 0 17 -9 23 -20 6
-11 17 -20 25 -20 8 0 18 -6 22 -13 4 -7 25 -21 46 -31 20 -9 37 -21 37 -26 0
-5 18 -15 40 -21 22 -7 40 -16 40 -20 0 -5 20 -14 45 -20 25 -6 45 -15 45 -18
0 -4 43 -16 95 -26 52 -11 95 -22 95 -25 0 -4 46 -13 103 -20 56 -7 104 -16
107 -20 6 -7 204 -30 263 -30 20 0 37 -4 37 -10 0 -6 48 -10 125 -10 77 0 125
4 125 10 0 6 12 10 26 10 30 0 117 21 124 30 3 3 24 12 48 18 23 7 42 16 42
20 0 5 16 14 36 21 19 7 51 28 71 47 19 19 39 34 43 34 5 0 15 8 22 18 17 23
45 41 33 21 -5 -8 -17 -20 -27 -27 -10 -7 -18 -19 -18 -25 0 -7 -16 -27 -35
-44 -19 -18 -35 -37 -35 -43 0 -5 -9 -15 -20 -22 -23 -14 -26 -28 -7 -27 6 0
22 12 35 27 12 15 43 49 67 76 25 27 45 52 45 56 0 4 10 18 23 32 12 14 29 35
37 47 21 31 27 26 34 -24 4 -25 11 -45 16 -45 5 0 12 -9 15 -21 4 -11 22 -36
41 -56 19 -19 34 -39 34 -44 0 -4 10 -14 23 -20 12 -7 28 -20 35 -31 7 -10 20
-18 28 -18 8 0 14 -5 14 -10 0 -6 18 -18 40 -27 22 -10 40 -21 40 -25 0 -4 20
-13 45 -19 25 -6 45 -15 45 -19 0 -4 29 -14 65 -21 36 -7 65 -16 65 -20 0 -9
139 -29 208 -29 110 0 168 31 191 103 7 20 16 37 20 37 4 0 13 27 19 60 7 33
17 60 22 60 4 0 14 17 21 38 6 20 15 39 19 42 12 8 40 68 40 85 0 8 4 15 9 15
5 0 12 13 15 30 3 16 9 43 12 60 4 22 14 32 40 42 19 6 34 16 34 20 0 4 5 8
10 8 6 0 10 -20 10 -45 0 -25 3 -45 8 -45 4 0 13 -14 21 -32 23 -52 86 -98
135 -98 14 0 26 -4 26 -10 0 -5 9 -10 20 -10 11 0 20 5 20 10 0 6 5 10 11 10
37 0 118 57 134 95 8 18 9 17 13 -10 2 -16 8 -32 13 -36 25 -15 25 -422 -1
-439 -4 -3 -10 -26 -14 -51 -4 -25 -14 -55 -24 -65 -9 -10 -24 -32 -32 -49 -8
-16 -21 -34 -27 -38 -17 -11 -16 -38 1 -31 7 3 19 17 27 32 8 15 21 33 30 39
9 7 20 24 23 38 4 14 10 25 15 25 5 0 12 14 16 30 4 17 13 37 21 45 8 8 20 40
26 72 6 32 17 63 24 70 7 7 18 35 25 63 7 27 16 50 20 50 4 0 10 10 14 23 l8
22 4 -22 c2 -13 8 -23 12 -23 4 0 13 -30 21 -67 7 -38 16 -70 19 -73 8 -6 41
-177 41 -213 0 -14 6 -27 13 -30 18 -6 18 -478 0 -485 -7 -2 -13 -17 -13 -33
0 -38 -31 -179 -40 -179 -4 0 -13 -18 -20 -40 -7 -22 -17 -40 -21 -40 -4 0
-12 -13 -18 -30 -5 -16 -15 -30 -20 -30 -6 0 -11 -6 -11 -13 0 -17 -45 -64
-70 -72 -11 -3 -20 -10 -20 -14 0 -5 -13 -14 -30 -21 -16 -7 -30 -16 -30 -20
0 -4 -12 -11 -26 -14 -15 -4 -25 -9 -22 -11 8 -8 93 19 101 32 4 7 14 13 22
13 8 0 18 8 24 17 5 10 13 15 16 11 4 -4 0 -14 -8 -23 -9 -8 -19 -24 -22 -35
-3 -11 -10 -20 -14 -20 -4 0 -14 -25 -21 -55 -7 -30 -17 -55 -22 -55 -4 0 -8
-34 -8 -75 0 -43 4 -75 10 -75 6 0 10 -9 10 -20 0 -23 -18 -27 -26 -6 -3 7
-23 21 -45 31 -21 10 -39 22 -39 27 0 5 -11 13 -25 18 -14 5 -25 14 -25 19 0
6 -18 16 -40 22 -22 7 -40 16 -40 20 0 5 -16 15 -35 23 -19 8 -35 19 -35 24 0
4 -16 14 -35 22 -39 15 -42 22 -21 43 8 8 19 33 26 55 6 23 15 42 19 42 5 0
11 15 14 33 22 137 31 183 37 187 4 3 10 34 14 69 6 56 6 62 -7 49 -8 -8 -23
-63 -32 -121 -10 -59 -21 -107 -26 -107 -4 0 -11 -25 -14 -56 -4 -30 -13 -61
-20 -68 -7 -6 -16 -26 -19 -43 -4 -18 -20 -47 -37 -65 -16 -18 -29 -36 -29
-41 0 -12 -73 -77 -87 -77 -7 0 -13 -5 -13 -10 0 -6 -12 -16 -27 -23 -16 -6
-31 -15 -34 -19 -11 -16 -162 -38 -255 -38 -137 0 -119 -22 26 -32 32 -3 33
-4 17 -18 -10 -8 -27 -23 -38 -33 -10 -9 -22 -17 -27 -17 -4 0 -21 -13 -38
-28 -17 -15 -44 -36 -59 -47 -15 -11 -35 -27 -44 -35 -9 -8 -34 -24 -56 -35
-22 -11 -42 -23 -45 -26 -3 -3 -21 -11 -40 -19 -19 -8 -41 -20 -48 -27 -7 -7
-28 -15 -47 -19 -19 -3 -35 -10 -35 -14 0 -4 -29 -16 -65 -26 -36 -10 -65 -22
-65 -25 0 -4 -20 -12 -45 -19 -25 -7 -45 -16 -45 -20 0 -4 -18 -13 -40 -20
-22 -7 -40 -17 -40 -21 0 -4 -17 -13 -37 -19 -21 -7 -42 -17 -48 -24 -5 -6
-22 -16 -36 -23 l-27 -12 17 52 c9 29 19 54 23 55 11 5 10 62 -1 62 -5 0 -15
-25 -22 -56 -7 -31 -18 -62 -25 -69 -7 -7 -16 -25 -20 -40 -4 -14 -13 -29 -20
-32 -8 -3 -14 -10 -14 -15 0 -18 -106 -117 -133 -123 -15 -4 -27 -11 -27 -15
0 -18 -121 -34 -250 -34 -142 -1 -371 21 -380 35 -3 5 -38 11 -78 15 -78 7
-95 24 -42 43 17 5 30 14 30 20 0 6 17 18 38 28 20 9 43 25 50 35 7 10 17 18
23 18 5 0 18 9 29 20 11 11 16 20 10 20 -23 0 -100 -25 -100 -32 0 -4 -4 -8
-10 -8 -23 0 -7 19 25 30 19 6 35 15 35 20 0 4 14 13 30 20 17 7 34 18 38 24
4 6 16 16 26 22 11 6 22 17 24 25 2 8 0 10 -5 4 -4 -6 -21 -17 -38 -25 -16 -8
-36 -20 -43 -27 -7 -6 -28 -17 -47 -24 -19 -7 -35 -16 -35 -20 0 -4 -17 -13
-37 -20 -21 -6 -41 -16 -44 -21 -3 -4 -32 -14 -65 -20 -32 -7 -62 -17 -66 -23
-10 -14 -386 -14 -396 1 -4 6 -40 16 -79 24 -40 7 -73 16 -73 20 0 4 -18 12
-40 19 -22 6 -40 16 -40 20 0 5 -11 12 -25 15 -22 6 -135 106 -135 120 0 3 7
6 15 6 8 0 15 -4 15 -10 0 -5 5 -10 10 -10 23 0 8 21 -25 34 -19 8 -35 19 -35
24 0 5 -13 15 -29 22 -32 13 -53 44 -23 33 9 -4 20 -12 25 -19 4 -7 22 -16 40
-19 17 -4 35 -12 38 -17 3 -4 28 -10 55 -12 27 -2 39 -2 27 1 -13 2 -23 8 -23
14 0 5 -20 14 -45 20 -25 6 -45 15 -45 19 0 5 -16 14 -36 20 -33 11 -144 110
-144 128 0 5 -9 19 -19 31 -10 12 -22 38 -26 59 -4 20 -12 40 -18 44 -16 10
-13 371 2 376 7 2 11 42 11 102 l0 99 33 -11 c17 -6 47 -13 65 -15 17 -3 32
-9 32 -13 0 -4 29 -14 65 -21 36 -7 65 -16 65 -21 0 -4 9 -8 20 -8 35 0 21 17
-25 30 -25 7 -45 16 -45 20 0 5 -19 11 -41 15 -46 8 -36 25 14 25 15 0 27 5
27 10 0 6 8 10 18 10 32 0 69 23 82 53 11 25 11 115 -1 156 -2 8 8 18 26 24
17 5 32 13 35 17 3 4 30 13 60 20 30 7 58 18 62 24 10 15 226 15 236 0 4 -6
25 -17 46 -24 41 -13 51 -19 92 -57 38 -35 26 -105 -21 -123 -27 -10 -34 -30
-11 -30 24 0 78 62 83 96 5 29 0 38 -42 78 -26 25 -53 46 -61 46 -8 0 -14 4
-14 8 0 10 -81 32 -115 32 -14 0 -25 4 -25 9 0 9 81 25 188 37 34 4 62 10 62
14 0 4 38 14 85 21 47 7 85 15 85 19 0 4 34 13 75 20 41 7 75 16 75 20 0 4 36
15 80 25 44 10 80 21 80 24 0 4 20 13 45 20 25 7 45 16 45 21 0 4 18 13 40 20
22 7 40 16 40 20 0 3 15 14 34 23 19 9 44 24 56 34 44 36 245 241 258 262 24
41 11 40 -33 -3 -25 -25 -45 -48 -45 -53 0 -4 -14 -19 -32 -33 -17 -14 -41
-35 -53 -47 -11 -12 -34 -25 -49 -29 -15 -3 -30 -12 -33 -19 -2 -7 -18 -19
-34 -25 -16 -7 -29 -16 -29 -20 0 -4 -15 -13 -32 -21 -18 -7 -36 -18 -40 -24
-4 -6 -25 -17 -48 -25 -22 -7 -40 -16 -40 -20 0 -3 -22 -13 -50 -20 -27 -7
-50 -17 -50 -20 0 -4 -26 -13 -57 -20 -32 -7 -60 -16 -63 -19 -6 -9 -152 -41
-185 -41 -14 0 -25 -4 -25 -9 0 -5 -40 -15 -90 -22 -49 -6 -90 -15 -90 -19 0
-4 -45 -13 -100 -20 -55 -7 -100 -16 -100 -20 0 -3 -40 -14 -90 -24 -49 -11
-90 -22 -90 -26 0 -4 -25 -12 -55 -19 -30 -7 -55 -16 -55 -20 0 -4 -25 -14
-55 -21 -30 -7 -55 -17 -55 -22 0 -4 -27 -15 -60 -25 -33 -9 -60 -20 -60 -24
0 -4 -16 -13 -35 -19 -19 -6 -35 -15 -35 -19 0 -4 -16 -13 -35 -21 -19 -8 -35
-17 -35 -20 0 -4 -19 -15 -42 -26 -24 -10 -46 -22 -49 -27 -3 -4 -33 -13 -67
-19 -47 -9 -77 -8 -132 1 -38 7 -70 16 -70 20 0 4 -15 12 -34 19 -18 7 -46 23
-62 37 -16 14 -32 25 -37 25 -4 0 -15 8 -26 17 -35 33 -65 53 -98 65 -18 7
-33 16 -33 21 0 4 -14 13 -30 18 -17 6 -30 15 -30 20 0 5 -6 9 -14 9 -18 0
-156 138 -156 155 0 7 -5 15 -11 17 -14 5 32 58 49 58 6 0 15 6 19 13 4 6 22
19 38 27 17 8 34 21 38 27 4 7 13 13 19 13 16 0 155 144 163 169 3 11 10 21
15 21 8 0 11 10 30 104 6 28 15 53 21 57 17 10 31 225 18 287 -6 28 -14 52
-18 52 -4 0 -13 11 -19 25 -7 14 -20 29 -29 32 -10 4 -23 13 -29 21 -5 7 -42
19 -82 25 -74 12 -94 29 -46 41 14 4 35 16 47 26 11 11 27 20 34 20 7 0 13 3
13 8 0 4 20 15 45 25 25 11 45 22 45 26 0 4 16 13 35 21 19 8 35 18 35 22 0 5
8 12 17 15 29 11 122 110 129 137 3 14 10 26 15 26 5 0 9 25 9 55 0 30 -4 55
-9 55 -5 0 -11 10 -15 23 -7 27 -28 56 -86 115 l-45 46 0 138 c0 87 4 141 11
146 6 4 18 46 28 95 10 48 22 87 26 87 4 0 13 25 20 55 7 30 17 55 21 55 4 0
13 16 19 35 6 19 15 35 18 35 7 0 42 73 42 85 0 3 9 15 20 27 11 12 20 28 20
35 0 7 4 13 8 13 5 0 15 18 22 39 7 22 18 42 24 44 7 3 18 23 26 46 7 23 17
41 22 41 4 0 8 6 8 13 0 7 8 22 18 33 9 10 23 31 31 47 8 15 18 27 22 27 4 0
23 14 41 30 18 17 38 30 45 30 7 0 17 9 23 20 6 11 17 20 25 20 8 0 19 9 25
20 6 11 17 20 25 20 8 0 18 6 22 13 4 7 25 21 46 31 20 9 37 20 37 25 0 4 16
13 35 21 19 8 35 17 35 21 0 3 14 12 30 19 17 7 30 16 30 20 0 4 18 13 41 20
23 8 43 19 46 26 2 7 24 18 49 25 24 7 44 17 44 20 0 4 14 10 30 14 17 4 36
12 43 19 6 6 42 20 80 30 37 10 67 22 67 26 0 4 29 14 65 21 36 7 65 16 65 19
0 4 37 12 83 20 45 7 84 16 87 21 6 8 166 26 250 27 49 1 52 -1 30 -11z m-757
-1330 c16 -16 22 -34 22 -67 0 -38 -5 -50 -34 -78 -19 -17 -37 -32 -42 -32 -4
0 -14 -6 -21 -13 -22 -22 -78 -37 -139 -37 -67 0 -109 13 -109 35 0 8 -4 15
-10 15 -5 0 -10 20 -10 45 0 25 5 45 10 45 6 0 10 5 10 11 0 16 62 79 78 79 6
0 12 4 12 9 0 15 39 20 128 14 68 -4 88 -9 105 -26z m-315 -19 c-7 -13 -19
-28 -27 -34 -18 -14 -26 -101 -13 -135 6 -15 24 -33 41 -40 17 -8 31 -17 31
-21 0 -5 29 -8 65 -8 37 0 65 4 65 10 0 6 5 10 10 10 6 0 10 -13 10 -30 0 -16
4 -30 8 -30 5 0 14 -12 21 -26 15 -33 62 -84 77 -84 7 0 14 -6 17 -14 3 -8 24
-17 46 -21 23 -4 41 -11 41 -15 0 -5 7 -10 17 -12 12 -2 9 -7 -13 -18 -15 -8
-36 -22 -45 -30 -40 -35 -51 -42 -82 -52 -17 -6 -35 -15 -38 -20 -20 -30 -205
-48 -292 -29 -23 6 -54 12 -69 16 -16 3 -28 11 -28 18 0 7 -9 23 -20 35 -41
43 -53 96 -47 200 7 120 14 141 70 203 9 10 17 22 17 25 0 11 63 69 83 77 9 3
17 11 17 17 0 8 25 24 48 29 1 1 -3 -9 -10 -21z m3431 -145 c6 -21 11 -46 11
-55 0 -10 5 -18 10 -18 6 0 10 -40 10 -100 0 -55 -3 -100 -8 -100 -4 0 -15
-36 -25 -80 -10 -44 -22 -80 -27 -80 -5 0 -14 -16 -20 -35 -6 -19 -15 -35 -20
-35 -4 0 -11 -12 -14 -26 -4 -14 -32 -51 -64 -82 -31 -32 -63 -69 -71 -85 -8
-15 -20 -27 -28 -27 -7 0 -13 -5 -13 -10 0 -6 -11 -15 -25 -20 -14 -5 -25 -15
-25 -21 0 -7 -2 -10 -5 -7 -10 9 16 106 29 111 8 3 19 28 26 56 7 28 16 51 20
51 4 0 14 29 21 65 7 36 16 65 20 65 4 0 13 34 20 75 6 41 16 75 20 75 5 0 9
11 9 25 0 24 5 33 37 69 6 7 16 32 23 54 6 23 14 42 19 42 4 0 13 29 20 65 15
75 34 85 50 28z m-1123 -3213 c-3 -16 -9 -43 -12 -60 -3 -16 -9 -30 -13 -30
-4 0 -15 -18 -25 -39 -10 -25 -28 -45 -46 -53 -17 -7 -30 -16 -30 -20 0 -5
-13 -8 -30 -8 -16 0 -30 5 -30 10 0 6 -7 10 -15 10 -8 0 -15 5 -15 10 0 6 4
10 10 10 30 0 80 81 80 131 0 25 5 30 30 36 17 3 30 9 30 14 0 8 23 16 53 18
15 1 18 -4 13 -29z m-2224 -132 c10 -10 25 -18 33 -18 8 0 15 -4 15 -9 0 -5
20 -14 45 -20 25 -6 45 -16 45 -21 0 -6 7 -10 15 -10 12 0 15 -13 15 -55 0
-30 -2 -55 -5 -55 -13 0 -61 26 -68 37 -4 7 -14 13 -22 13 -8 0 -19 9 -25 20
-6 11 -16 20 -23 20 -15 0 -77 63 -77 77 0 6 -7 13 -15 17 -8 3 -15 17 -15 31
l0 26 32 -18 c17 -10 40 -26 50 -35z m1950 -11 c-3 -60 -5 -64 -38 -82 -19
-10 -34 -21 -34 -25 0 -4 -13 -13 -30 -20 -16 -7 -30 -16 -30 -20 0 -4 -18
-13 -40 -20 -22 -7 -40 -17 -40 -22 0 -4 -7 -8 -15 -8 -11 0 -15 12 -15 50 0
28 4 50 9 50 5 0 14 13 19 29 6 16 20 32 31 36 12 3 21 10 21 15 0 4 11 11 24
14 14 3 31 13 39 20 15 15 73 44 92 45 6 1 9 -24 7 -62z m-1172 -186 c0 -4 33
-11 73 -15 39 -4 100 -12 135 -18 l62 -10 0 -59 0 -59 -77 0 c-43 0 -115 3
-160 7 l-83 6 0 78 c0 78 0 79 25 79 14 0 25 -4 25 -9z"/>
<path d="M1920 2781 c0 -5 -16 -12 -35 -15 -19 -4 -40 -13 -47 -20 -8 -7 -30
-19 -51 -25 -20 -7 -37 -16 -37 -20 0 -4 -20 -15 -45 -25 -25 -11 -45 -22 -45
-26 0 -4 -20 -13 -45 -20 -25 -7 -45 -16 -45 -20 0 -4 -21 -13 -47 -21 -27 -7
-53 -18 -60 -25 -7 -6 -32 -18 -57 -25 -26 -7 -46 -17 -46 -20 0 -4 -25 -13
-55 -20 -30 -7 -55 -15 -55 -19 0 -4 -29 -13 -65 -20 -36 -7 -65 -16 -65 -20
0 -4 -29 -13 -65 -20 -37 -7 -75 -21 -89 -34 -38 -33 -56 -124 -40 -205 7 -32
24 -33 24 -1 0 17 5 19 33 13 17 -3 34 -9 37 -12 3 -4 17 -12 33 -18 15 -7 27
-19 27 -28 0 -8 5 -15 10 -15 6 0 10 -8 10 -18 0 -10 12 -29 28 -43 24 -21 36
-24 110 -23 46 0 87 5 90 11 4 5 31 16 60 23 28 6 52 16 52 20 0 5 16 14 35
20 19 6 35 15 35 20 0 5 14 11 30 15 17 4 36 15 43 26 6 10 17 19 24 19 7 0
18 9 25 20 7 11 18 20 25 20 6 0 18 8 25 18 15 20 77 52 102 52 9 0 16 4 16 8
0 15 67 32 128 32 34 0 62 3 62 8 0 4 14 13 30 20 25 11 30 19 30 48 0 19 -4
34 -10 34 -5 0 -10 9 -10 20 0 11 7 20 15 20 9 0 19 8 22 18 4 9 11 20 17 24
14 9 9 222 -4 226 -6 2 -17 10 -24 18 -16 16 -136 20 -136 5z m-10 -111 c3 -3
12 -21 20 -40 8 -19 16 -37 19 -40 13 -11 29 -47 36 -80 4 -19 14 -40 21 -48
15 -14 18 -40 8 -66 -5 -13 -23 -16 -90 -16 -46 0 -84 4 -84 8 0 5 -25 14 -55
21 -30 7 -61 18 -68 25 -6 6 -27 18 -44 25 -18 7 -33 17 -33 21 0 5 -13 13
-30 19 -16 5 -30 15 -30 21 0 6 -11 15 -25 20 -35 13 -22 35 31 50 24 7 44 16
44 20 0 4 18 13 40 20 22 7 40 16 40 20 0 4 19 15 43 26 23 10 44 21 47 25 3
3 22 12 43 20 20 7 37 18 38 24 1 5 6 -8 11 -30 6 -22 14 -42 18 -45z m-371
-147 c45 -42 53 -48 89 -63 17 -8 32 -18 32 -22 0 -4 12 -14 28 -22 25 -14 26
-15 5 -16 -13 0 -23 -5 -23 -10 0 -6 -11 -15 -25 -20 -14 -5 -25 -13 -25 -18
0 -4 -16 -14 -35 -22 -19 -8 -35 -17 -35 -21 0 -5 -17 -16 -37 -26 -21 -9 -44
-23 -51 -30 -7 -7 -20 -13 -28 -13 -8 0 -17 -6 -20 -14 -3 -7 -24 -19 -47 -27
-23 -7 -44 -16 -47 -20 -19 -25 -159 -49 -186 -31 -16 11 -34 48 -34 71 0 12
-4 21 -10 21 -5 0 -10 -7 -10 -15 0 -8 -4 -15 -10 -15 -5 0 -10 5 -10 10 0 6
-11 15 -25 20 -14 5 -25 14 -25 19 0 5 -13 12 -30 16 -23 5 -30 12 -30 31 0
29 37 74 62 74 10 0 18 4 18 8 0 4 41 17 90 27 50 10 90 22 90 26 0 3 27 12
60 19 33 7 60 16 60 20 0 4 12 11 28 14 15 4 35 9 45 12 12 4 17 0 17 -15 0
-12 5 -21 10 -21 6 0 10 -16 10 -35 0 -19 -4 -35 -9 -35 -5 0 -11 -13 -14 -29
-7 -32 -26 -40 -97 -42 -25 -1 -37 -3 -27 -6 9 -2 17 -9 17 -14 0 -5 16 -9 35
-9 19 0 35 4 35 8 0 4 15 12 33 17 27 9 33 16 38 50 3 22 7 33 8 24 2 -22 51
-79 51 -58 0 19 -23 69 -32 69 -4 0 -14 26 -23 57 -16 54 -16 58 1 70 27 20
50 16 83 -14z"/>
<path d="M5006 2740 c3 -14 8 -35 11 -47 3 -13 9 -23 13 -23 4 0 15 -26 26
-57 10 -32 22 -60 25 -63 3 -3 12 -30 19 -60 7 -30 17 -57 21 -60 4 -3 13 -46
20 -96 9 -70 9 -108 -1 -163 -6 -39 -15 -71 -19 -71 -4 0 -13 -18 -20 -40 -6
-22 -16 -40 -20 -40 -5 0 -11 -8 -15 -17 -10 -30 -29 -55 -90 -115 -33 -31
-57 -61 -53 -64 4 -4 7 -2 7 4 0 7 7 12 15 12 8 0 20 9 27 20 7 11 16 20 20
20 17 0 6 -23 -25 -53 -18 -18 -38 -40 -45 -49 -12 -15 -11 -16 20 -5 18 7 35
15 38 18 3 4 24 12 48 19 23 7 42 17 42 21 0 4 16 13 35 20 19 7 35 16 35 20
0 4 6 9 13 12 6 2 -1 2 -18 -1 -16 -2 -32 -8 -35 -12 -3 -4 -23 -13 -45 -20
-22 -7 -43 -18 -47 -24 -5 -7 -8 -8 -8 0 0 6 11 20 24 32 14 11 31 40 38 64 7
24 18 49 25 56 7 7 13 20 13 28 0 8 6 17 14 20 8 3 20 29 27 57 6 29 17 55 23
59 15 10 13 227 -2 237 -6 3 -14 30 -18 59 -4 29 -12 59 -19 65 -7 7 -18 36
-25 65 -8 29 -17 52 -21 52 -4 0 -15 23 -25 50 -10 28 -22 50 -26 50 -5 0 -13
10 -19 23 -9 21 -9 21 -3 -3z"/>
<path d="M3408 2368 c-27 -6 -48 -14 -48 -18 0 -4 -10 -10 -23 -14 -13 -3 -36
-17 -53 -31 -16 -14 -33 -25 -38 -25 -13 0 -79 -70 -101 -107 -11 -18 -23 -33
-26 -33 -4 0 -13 -25 -20 -55 -7 -30 -15 -55 -19 -55 -4 0 -13 -26 -20 -57 -7
-32 -16 -60 -21 -63 -5 -4 -12 -22 -16 -40 -6 -32 -5 -34 9 -19 9 9 21 35 28
57 6 23 14 42 19 42 5 0 14 27 21 60 7 33 16 60 20 60 4 0 13 19 21 43 14 45
137 177 164 177 8 0 18 6 22 13 4 8 31 20 58 27 28 7 52 17 55 21 3 4 34 11
70 17 l65 9 -60 1 c-33 0 -81 -5 -107 -10z"/>
<path d="M3118 1842 c-10 -2 -18 -7 -18 -12 0 -5 -8 -11 -17 -13 -14 -4 -13
-5 4 -6 12 0 29 6 37 15 9 8 16 12 16 8 0 -3 -16 -21 -35 -40 -19 -18 -35 -39
-35 -46 0 -7 -16 -28 -35 -47 -19 -19 -35 -40 -35 -47 0 -8 -5 -14 -11 -14 -5
0 -15 -13 -20 -30 -6 -16 -14 -30 -19 -30 -4 0 -13 -20 -20 -45 -7 -25 -16
-45 -20 -45 -4 0 -15 -27 -24 -60 -9 -33 -20 -60 -25 -60 -4 0 -13 -24 -21
-52 -7 -29 -18 -57 -24 -61 -7 -6 -6 -7 4 -4 8 2 19 18 24 35 5 18 12 32 17
32 4 0 15 25 24 55 8 30 19 55 24 55 4 0 13 18 20 40 6 22 15 40 19 40 5 0 14
17 21 38 8 20 17 39 20 42 3 3 15 23 26 45 22 43 49 75 64 75 6 0 16 8 23 18
7 10 28 27 46 37 34 21 41 35 17 35 -8 0 -15 -4 -15 -8 0 -5 -12 -14 -27 -21
-27 -12 -27 -11 5 18 18 17 37 31 42 31 4 0 10 6 13 14 6 15 -22 18 -65 8z"/>
</g>
</svg>
